<svg width="17" height="17" viewBox="0 0 17 17" fill="none" xmlns="http://www.w3.org/2000/svg">
<path fill-rule="evenodd" clip-rule="evenodd" d="M17 16.0614C17 16.5795 16.58 17 16.0618 17H11.7297V10.4166H13.9395L14.2706 7.85125H11.7297V6.21293C11.7297 5.47017 11.9363 4.96404 13.0013 4.96404L14.36 4.96358V2.66864C14.1248 2.63761 13.3185 2.56769 12.3803 2.56769C10.4215 2.56769 9.08047 3.76332 9.08047 5.95917V7.85125H6.86511V10.4166H9.08047V17H0.938193C0.42001 17 0 16.5795 0 16.0614V0.93863C0 0.419999 0.42001 0 0.938193 0H16.0618C16.58 0 17 0.419999 17 0.93863V16.0614Z" fill="#FF0000"/>
</svg>
