<svg width="17" height="17" viewBox="0 0 17 17" fill="none" xmlns="http://www.w3.org/2000/svg">
<path fill-rule="evenodd" clip-rule="evenodd" d="M14.9793 0H2.02073C0.904645 0 0 0.902327 0 2.01609V14.9839C0 16.0972 0.904645 17 2.02073 17H14.9793C16.0954 17 17 16.0972 17 14.9839V2.01609C17 0.902327 16.0954 0 14.9793 0ZM12.219 2.65597C12.219 2.36293 12.4568 2.12506 12.7499 2.12506H14.3436C14.6371 2.12506 14.8749 2.36293 14.8749 2.65597V4.25012C14.8749 4.54316 14.6371 4.78103 14.3436 4.78103H12.7499C12.4568 4.78103 12.219 4.54316 12.219 4.25012V2.65597ZM8.51971 5.25816C10.3253 5.25816 11.7891 6.71876 11.7891 8.51971C11.7891 10.3211 10.3253 11.7813 8.51971 11.7813C6.71459 11.7813 5.25074 10.3211 5.25074 8.51971C5.25074 6.71876 6.71459 5.25816 8.51971 5.25816ZM15.4063 14.8749C15.4063 15.168 15.1685 15.4063 14.8749 15.4063H2.12506C1.83155 15.4063 1.59367 15.168 1.59367 14.8749V6.90609H3.71873C3.44192 7.30439 3.34825 8.04768 3.34825 8.51971C3.34825 11.3644 5.66852 13.6791 8.51971 13.6791C11.3714 13.6791 13.6916 11.3644 13.6916 8.51971C13.6916 8.04768 13.6244 7.31599 13.2813 6.90609H15.4063V14.8749Z" fill="#FF0000"/>
</svg>
