<svg width="17" height="14" viewBox="0 0 17 14" fill="none" xmlns="http://www.w3.org/2000/svg">
<path fill-rule="evenodd" clip-rule="evenodd" d="M16.5311 0.258819C15.8566 0.66342 15.1113 0.957675 14.3147 1.11512C13.6802 0.428823 12.7733 0 11.7692 0C9.84468 0 8.28281 1.58252 8.28281 3.5342C8.28281 3.81141 8.31277 4.0801 8.37268 4.33892C5.47406 4.19134 2.90452 2.78601 1.18332 0.645029C0.88284 1.16895 0.711266 1.77675 0.711266 2.42402C0.711266 3.64948 1.32676 4.73141 2.26316 5.36522C1.69215 5.34818 1.15337 5.18759 0.682217 4.92474V4.9678C0.682217 6.68085 1.8846 8.10996 3.48143 8.43337C3.18912 8.51636 2.88046 8.55807 2.56228 8.55807C2.3376 8.55807 2.11836 8.53654 1.90594 8.49527C2.34985 9.89882 3.63712 10.9211 5.16359 10.9484C3.97028 11.8967 2.4656 12.4619 0.832005 12.4619C0.550585 12.4619 0.272341 12.4457 0 12.4134C1.54327 13.4146 3.37749 14 5.34652 14C11.7624 14 15.2697 8.61549 15.2697 3.94463C15.2697 3.79078 15.267 3.63737 15.2611 3.48666C15.9424 2.98831 16.5343 2.36615 17 1.65743C16.3754 1.93823 15.7027 2.12842 14.9974 2.21364C15.7177 1.77675 16.2706 1.08417 16.5311 0.258819Z" fill="#FF0000"/>
</svg>
